<svg width="74" height="106" viewBox="0 0 74 106" fill="none" xmlns="http://www.w3.org/2000/svg">
<path d="M69.4572 96.8579H53.7727L53.1486 71.1524C53.0989 69.1084 53.407 67.0901 54.064 65.1539L60.6564 45.7238C61.1302 44.3272 61.323 42.8728 61.2294 41.4014L60.2615 26.1761C60.2777 26.1635 60.2947 26.1502 60.3106 26.1375C61.9228 24.8628 62.8244 22.8777 62.7228 20.827C62.6494 19.348 62.5216 17.2554 62.3301 15.6857C62.3129 15.5452 62.2778 15.4079 62.2253 15.2766C62.126 15.0287 62.0024 14.7779 61.8522 14.5224L61.9036 14.4618C62.3208 13.9709 62.5702 13.3467 62.6062 12.7041C62.7577 9.99682 63.0695 3.47113 62.6956 1.35128C62.6081 0.855875 62.2974 0.428067 61.8533 0.191705C61.4089 -0.0448758 60.8808 -0.0631917 60.4209 0.141118C59.7827 0.424797 58.6752 1.08548 56.4259 3.53632C56.4067 3.55638 56.3877 3.57688 56.3694 3.59781C55.0912 4.99418 53.8239 6.54994 52.8599 7.7782H46.114C45.1502 6.54994 43.883 4.9944 42.605 3.59825C42.586 3.57644 42.5666 3.55529 42.5466 3.53458C40.2981 1.08482 39.1908 0.42436 38.553 0.1409C38.0934 -0.0634098 37.5651 -0.0446578 37.1207 0.191487C36.6763 0.427631 36.3658 0.855439 36.2784 1.35084C35.904 3.47222 36.2162 9.99704 36.3678 12.7039C36.4037 13.3467 36.6534 13.9712 37.0705 14.462L37.1218 14.5222C36.9718 14.7777 36.8479 15.0282 36.7487 15.2762C36.6961 15.4076 36.6608 15.5452 36.6438 15.6857C36.4524 17.2556 36.3248 19.348 36.2513 20.827C36.1733 22.4006 36.6881 23.9344 37.6595 25.1395L33.5831 32.612L21.21 36.8761C12.6338 39.8317 6.21017 47.1901 4.44531 56.0797C2.19572 67.4126 -0.392932 82.9672 0.0499208 92.7106C0.168102 95.3113 0.85495 97.85 2.03676 100.052C3.50836 102.795 6.00805 105.943 12.3292 105.943H69.4574C71.9621 105.943 74 103.906 74 101.401C74 98.8962 71.9619 96.8579 69.4572 96.8579ZM40.1443 5.75364C40.1589 5.77043 40.1742 5.78678 40.1895 5.80292C41.7097 7.46356 43.2506 9.41464 44.036 10.4331C44.4135 10.9227 45.0188 11.1431 45.5957 11.0485H53.3787C53.9563 11.1431 54.5609 10.9224 54.9384 10.4331C55.7277 9.40963 57.2802 7.44372 58.8078 5.77762C58.8106 5.77435 58.8137 5.7713 58.8165 5.76825C59.1033 5.45535 59.3651 5.1793 59.6041 4.93531C59.5958 7.11577 59.4818 9.98091 59.3466 12.4202L58.5381 13.3713C58.0239 13.9762 58.0185 14.8632 58.5252 15.4746C58.8349 15.8479 59.0115 16.1279 59.1124 16.3245C59.2764 17.77 59.3896 19.6404 59.4565 20.989C59.506 21.9859 59.0671 22.9514 58.2825 23.5715C56.4189 25.0449 52.8927 27.7179 50.2166 29.0663C49.76 29.2963 49.2146 29.2963 48.7583 29.0663C46.0815 27.7175 42.5557 25.0449 40.6925 23.5715C39.9078 22.9512 39.469 21.9857 39.5183 20.989C39.5853 19.6404 39.6982 17.7702 39.8622 16.3245C39.9631 16.1276 40.1398 15.8475 40.4494 15.4746C40.9563 14.8634 40.9511 13.9764 40.4367 13.3713L39.6282 12.4202C39.4928 9.98091 39.3788 7.11577 39.3705 4.93531C39.6053 5.1756 39.8626 5.44685 40.1443 5.75364ZM69.4572 102.673H12.329C8.01974 102.673 6.29892 101.078 4.91868 98.5061C3.96691 96.7323 3.41307 94.677 3.31713 92.5621C2.88911 83.1462 5.43894 67.8721 7.65343 56.7166C9.1924 48.9639 14.7953 42.5464 22.2758 39.9682L35.2481 35.4976C35.6336 35.3648 35.9557 35.0927 36.1508 34.7346L40.1938 27.3235C42.3937 28.995 45.0495 30.8602 47.2862 31.9873C47.9755 32.3344 48.7312 32.5082 49.4872 32.5082C50.2432 32.5082 50.9991 32.3346 51.6882 31.9873C53.3894 31.1301 55.333 29.8452 57.135 28.5434L57.9655 41.6086C58.0318 42.6517 57.8951 43.6828 57.5593 44.6728L50.9669 64.1029C50.186 66.404 49.8202 68.8025 49.8792 71.2315L50.5013 96.8577H48.2125L44.6221 69.9309C44.6176 69.8951 44.6115 69.8596 44.6043 69.8242L39.9527 46.7113C39.7745 45.826 38.913 45.2526 38.0267 45.4307C37.1412 45.6088 36.5679 46.471 36.7461 47.3567L41.3872 70.4167L41.8549 73.9244C40.2603 70.1546 37.5744 66.907 34.015 64.5654C33.261 64.0693 32.2467 64.2782 31.75 65.0329C31.2537 65.7873 31.4628 66.8015 32.2175 67.298C37.0053 70.4478 39.925 75.5371 40.2276 81.2601C40.5301 86.9834 38.1634 92.3519 33.7342 95.9892L32.6765 96.8579H28.2595C22.7135 96.8579 17.3068 95.2871 12.624 92.3153C11.8613 91.831 10.8509 92.0574 10.367 92.8199C9.88317 93.5824 10.1088 94.5928 10.8716 95.0769C16.079 98.3816 22.0918 100.128 28.2595 100.128H69.4576C70.1589 100.128 70.7295 100.699 70.7295 101.4C70.7295 102.101 70.1584 102.673 69.4572 102.673ZM44.9126 96.8579H37.6117C40.7662 93.6072 42.7496 89.5001 43.3383 85.0493L44.9126 96.8579Z" fill="#E67E22"/>
</svg>
